<?xml version="1.0" encoding="UTF-8"?>
<svg width="31px" height="25px" viewBox="0 0 31 25" version="1.1" xmlns="http://www.w3.org/2000/svg" xmlns:xlink="http://www.w3.org/1999/xlink">
    <!-- Generator: Sketch 61.2 (89653) - https://sketch.com -->
    <title>Fill 1@1.5x</title>
    <desc>Created with Sketch.</desc>
    <g id="Page-2" stroke="none" stroke-width="1" fill="none" fill-rule="evenodd">
        <g id="bnn-int" transform="translate(-109.000000, -900.000000)" fill="#000000">
            <g id="Group-4" transform="translate(35.000000, 893.000000)">
                <path d="M96.4096835,7.38718941 C97.5883017,7.58371138 98.5616108,8.16102155 99.4493926,8.923458 C99.5954653,9.04881063 99.8759381,9.10879929 100.071211,9.07375215 C100.46852,9.00236781 100.859065,8.86819963 101.235756,8.71908805 C101.987284,8.42183244 102.727684,8.09694765 103.558193,7.74744386 C103.227102,9.11739981 102.377829,10.0535668 101.249829,10.9869387 C101.704629,10.8937305 102.023393,10.8438475 102.33332,10.761605 C103.015138,10.5808865 103.692593,10.3837195 104.371684,10.1933254 L104.371684,10.4083385 C104.275574,10.4862807 104.170629,10.5558374 104.084665,10.6435628 C103.263102,11.4823289 102.437938,12.3177623 101.631865,13.1709342 C101.484702,13.3269262 101.32652,13.560968 101.331756,13.7549098 C101.378011,15.481465 101.159393,17.1623299 100.677102,18.8281439 C99.8581562,21.6566412 98.4509926,24.1597162 96.3791381,26.2523311 C95.3881562,27.2533246 94.2316835,28.1264928 93.0447744,28.90054 C91.1081926,30.1634194 88.9353199,30.8769403 86.6236835,31.1606501 C86.2100108,31.2115007 85.801029,31.3006237 85.3898653,31.3721155 L82.3353199,31.3721155 C82.2620108,31.3365308 82.1905562,31.2749296 82.1149562,31.2694468 C80.6342653,31.1609727 79.1815017,30.9056446 77.8184108,30.3146811 C76.6526653,29.8091853 75.5193199,29.2306926 74.3716835,28.6844518 L74.3716835,28.5769452 C76.3717562,28.6417717 78.3697562,28.6185503 80.2407744,27.8087034 C81.2831381,27.3574985 82.2720471,26.7869612 83.2851744,26.2701772 C83.2598653,26.2234119 83.2346653,26.1766465 83.2093562,26.1298812 C80.5757926,25.9450774 77.4887381,23.4718893 77.8304108,21.8374672 L80.0612108,21.8374672 C76.941429,20.8458268 75.289029,17.9072428 75.6315744,15.8037696 C76.4040471,16.0334036 77.1787017,16.2638977 77.9533562,16.4942842 C74.873829,13.8776823 75.1969562,9.89918744 76.5337562,8.41409197 C79.8221926,12.2091807 83.979429,14.3146964 88.9897562,14.7040851 C88.9897562,14.0164733 88.9581199,13.3746592 88.9958653,12.7368228 C89.1015744,10.9471613 90.0051744,9.57462517 91.3856108,8.47741333 C92.8989199,7.17959427 96.3684471,7.38030899 96.4096835,7.38718941" id="Fill-1"></path>
            </g>
        </g>
    </g>
</svg>