<?xml version="1.0" encoding="UTF-8"?>
<svg width="27px" height="27px" viewBox="0 0 27 27" version="1.1" xmlns="http://www.w3.org/2000/svg" xmlns:xlink="http://www.w3.org/1999/xlink">
    <!-- Generator: Sketch 61.2 (89653) - https://sketch.com -->
    <title>Group 5@1.5x</title>
    <desc>Created with Sketch.</desc>
    <g id="Page-2" stroke="none" stroke-width="1" fill="none" fill-rule="evenodd">
        <g id="bnn-int" transform="translate(-182.000000, -899.000000)" fill="#000000">
            <g id="Group-4" transform="translate(35.000000, 893.000000)">
                <g id="Group-5" transform="translate(147.247645, 6.248077)">
                    <path d="M13.3565663,24.2717741 C15.1250663,24.2717741 16.8935663,24.2792741 18.6635663,24.2672741 C19.1030663,24.2627741 19.5515663,24.2387741 19.9790663,24.1442741 C22.5605663,23.5727741 24.2675663,21.4367741 24.2750663,18.7712741 C24.2855663,15.1577741 24.2811405,11.5457741 24.2720663,7.93077406 C24.2705663,7.53027406 24.2375663,7.11927406 24.1505663,6.72927406 C23.5760663,4.14927406 21.4430663,2.44077406 18.7775663,2.43327406 C15.1640663,2.42277406 11.5505663,2.4271998 7.93706628,2.43627406 C7.53656628,2.43627406 7.12556628,2.47077406 6.73556628,2.55777406 C4.15406628,3.13227406 2.44706628,5.26527406 2.43956628,7.93077406 C2.42906628,11.5442741 2.43349202,15.1577741 2.44256628,18.7712741 C2.44256628,19.1732741 2.47706628,19.5827741 2.56406628,19.9727741 C3.13556628,22.5407741 5.25956628,24.2492741 7.89806628,24.2687741 C9.71756628,24.2822741 11.5370663,24.2717741 13.3565663,24.2717741 M13.3325663,26.6987741 C11.5640663,26.6987741 9.79406628,26.7017741 8.02556628,26.6987741 C4.49606628,26.6912741 1.57406628,24.6557741 0.440066279,21.3182741 C0.165566279,20.5097741 0.0395662792,19.6142741 0.0290662792,18.7562741 C-0.0159337208,15.1562741 0.0020662792,11.5547741 0.0125662792,7.95477406 C0.0230662792,4.15977406 2.51906628,1.02777406 6.21356628,0.19077406 C6.79856628,0.05877406 7.41656628,0.01527406 8.01806628,0.01227406 C11.5805663,-0.00422593996 15.1445663,-0.00122593996 18.7070663,0.00477406004 C22.5350663,0.01227406 25.6595663,2.48127406 26.5130663,6.19827406 C26.6480663,6.78327406 26.6945663,7.39977406 26.6960663,8.00277406 C26.7125663,11.5652741 26.7080663,15.1292741 26.7035663,18.6917741 C26.6975663,22.5242741 24.2450663,25.6367741 20.5175663,26.5037741 C19.9220663,26.6432741 19.2935663,26.6822741 18.6770663,26.6897741 C16.8965663,26.7137741 15.1145663,26.6987741 13.3325663,26.6987741" id="Fill-1"></path>
                    <path d="M13.3646663,8.49911701 C10.6856663,8.49462406 8.51966628,10.6456241 8.50458884,13.3246241 C8.48966628,16.0186241 10.6556663,18.1996241 13.3496663,18.2041311 C16.0286663,18.2086241 18.1946663,16.0576241 18.2097437,13.3771241 C18.2246663,10.6846241 16.0586663,8.50362406 13.3646663,8.49911701 M13.3466663,6.07210562 C17.3426663,6.06312406 20.6351663,9.34962406 20.6366668,13.3501241 C20.6381663,17.3491241 17.3456663,20.6371241 13.3496663,20.6296369 C9.36266628,20.6236241 6.09416628,17.3626241 6.07760436,13.3726241 C6.06116628,9.37812406 9.34466628,6.08112406 13.3466663,6.07210562" id="Fill-4"></path>
                    <circle id="Oval" cx="21" cy="6" r="1.5"></circle>
                </g>
            </g>
        </g>
    </g>
</svg>