<?xml version="1.0" encoding="UTF-8"?>
<svg width="38px" height="38px" viewBox="0 0 38 38" version="1.1" xmlns="http://www.w3.org/2000/svg" xmlns:xlink="http://www.w3.org/1999/xlink">
    <!-- Generator: Sketch 61.2 (89653) - https://sketch.com -->
    <title>Path@1.5x</title>
    <desc>Created with Sketch.</desc>
    <g id="Page-2" stroke="none" stroke-width="1" fill="none" fill-rule="evenodd">
        <g id="bnn-int" transform="translate(-35.000000, -893.000000)" fill="#000000" fill-rule="nonzero">
            <g id="Group-4" transform="translate(35.000000, 893.000000)">
                <path d="M35.81568,-1.45661261e-13 L1.359864,-1.45661261e-13 C0.608544,-1.45661261e-13 8.52651283e-14,0.608976 8.52651283e-14,1.360296 L8.52651283e-14,35.816184 C8.52651283e-14,36.567504 0.608976,37.176624 1.359792,37.176624 L8.11836,37.176624 L8.11836,22.76172 C8.11836,22.274784 7.723512,21.88044 7.23708,21.88044 L5.843736,21.88044 C5.357304,21.88044 4.962456,21.486096 4.962456,20.999232 L4.962456,17.489952 C4.962456,17.003088 5.357232,16.608672 5.843736,16.608672 L7.23708,16.608672 C7.723512,16.608672 8.11836,16.214256 8.11836,15.727392 L8.11836,13.434768 C8.11836,11.18268 8.650224,9.477792 9.714744,8.320752 C10.778904,7.163136 12.530016,6.584616 14.96808,6.584616 L18.300168,6.584616 C18.787032,6.584616 19.181448,6.979032 19.181448,7.465896 L19.181448,10.975176 C19.181448,11.462112 18.787032,11.856456 18.300168,11.856456 L16.545528,11.856456 C16.062984,11.856456 15.676128,11.89656 15.38532,11.9772 C15.094512,12.05784 14.883912,12.203208 14.754312,12.413448 C14.624352,12.624048 14.540616,12.837384 14.503608,13.053744 C14.4666,13.270536 14.448096,13.576752 14.448096,13.972896 L14.448096,15.727536 C14.448096,16.214472 14.842872,16.608816 15.329376,16.608816 L18.337608,16.608816 C18.82404,16.608816 19.177488,17.001 19.126368,17.485272 L18.754488,21.004272 C18.703368,21.488112 18.267552,21.880656 17.780688,21.880656 L15.329448,21.880656 C14.842944,21.880656 14.448168,22.275072 14.448168,22.761936 L14.448168,37.176624 L35.81568,37.176624 C36.567,37.176624 37.175544,36.567648 37.175544,35.816328 L37.175544,1.360296 C37.175544,0.608976 36.566928,-1.45661261e-13 35.81568,-1.45661261e-13 Z" id="Path"></path>
            </g>
        </g>
    </g>
</svg>