<?xml version="1.0" encoding="UTF-8"?>
<svg width="31px" height="25px" viewBox="0 0 31 25" version="1.1" xmlns="http://www.w3.org/2000/svg" xmlns:xlink="http://www.w3.org/1999/xlink">
    <!-- Generator: Sketch 61.2 (89653) - https://sketch.com -->
    <title>twitter-icon@1.5x</title>
    <desc>Created with Sketch.</desc>
    <g id="Page-2" stroke="none" stroke-width="1" fill="none" fill-rule="evenodd">
        <g id="bnn-int" transform="translate(-1760.000000, -47.000000)" fill="#FDDA29">
            <g id="Group-3">
                <g id="Group">
                    <g id="twitter-icon" transform="translate(1760.000000, 47.000000)">
                        <g id="Group-10">
                            <g id="Group-7-Copy">
                                <path d="M22.4101155,0.387189413 C23.5887337,0.583711385 24.5620428,1.16102155 25.4498246,1.923458 C25.5958973,2.04881063 25.8763701,2.10879929 26.0716428,2.07375215 C26.4689519,2.00236781 26.8594973,1.86819963 27.2361882,1.71908805 C27.9877155,1.42183244 28.7281155,1.09694765 29.5586246,0.747443859 C29.2275337,2.11739981 28.378261,3.05356684 27.250261,3.9869387 C27.705061,3.89373052 28.0238246,3.84384748 28.3337519,3.76160497 C29.0155701,3.58088646 29.6930246,3.38371945 30.3721155,3.19332536 L30.3721155,3.40833845 C30.2760064,3.4862807 30.171061,3.55583744 30.0850973,3.64356278 C29.2635337,4.48232888 28.4383701,5.31776227 27.6322973,6.17093424 C27.4851337,6.32692625 27.3269519,6.560968 27.3321882,6.75490982 C27.3784428,8.481465 27.1598246,10.1623299 26.6775337,11.8281439 C25.8585882,14.6566412 24.4514246,17.1597162 22.3795701,19.2523311 C21.3885882,20.2533246 20.2321155,21.1264928 19.0452064,21.90054 C17.1086246,23.1634194 14.9357519,23.8769403 12.6241155,24.1606501 C12.2104428,24.2115007 11.801461,24.3006237 11.3902973,24.3721155 L8.33575188,24.3721155 C8.26244279,24.3365308 8.19098824,24.2749296 8.11538824,24.2694468 C6.63469733,24.1609727 5.18193369,23.9056446 3.81884279,23.3146811 C2.65309733,22.8091853 1.51975188,22.2306926 0.372115513,21.6844518 L0.372115513,21.5769452 C2.37218824,21.6417717 4.37018824,21.6185503 6.24120642,20.8087034 C7.28357006,20.3574985 8.27247915,19.7869612 9.28560642,19.2701772 C9.26029733,19.2234119 9.23509733,19.1766465 9.20978824,19.1298812 C6.5762246,18.9450774 3.48917006,16.4718893 3.83084279,14.8374672 L6.06164279,14.8374672 C2.94186097,13.8458268 1.28946097,10.9072428 1.63200642,8.80376963 C2.40447915,9.03340362 3.17913369,9.26389766 3.95378824,9.49428419 C0.874260967,6.8776823 1.19738824,2.89918744 2.53418824,1.41409197 C5.8226246,5.20918066 9.97986097,7.31469642 14.9901882,7.70408514 C14.9901882,7.01647325 14.9585519,6.37465915 14.9962973,5.7368228 C15.1020064,3.94716128 16.0056064,2.57462517 17.3860428,1.47741333 C18.8993519,0.179594267 22.3688791,0.380308994 22.4101155,0.387189413" id="Fill-1"></path>
                            </g>
                        </g>
                    </g>
                </g>
            </g>
        </g>
    </g>
</svg>